<?xml version="1.0" encoding="UTF-8"?>
<svg version="1.1" xmlns="http://www.w3.org/2000/svg" width="256" height="256">
<path d="M0 0 C84.48 0 168.96 0 256 0 C256 84.48 256 168.96 256 256 C171.52 256 87.04 256 0 256 C0 171.52 0 87.04 0 0 Z " fill="#020202" transform="translate(0,0)"/>
<path d="M0 0 C84.48 0 168.96 0 256 0 C256 84.48 256 168.96 256 256 C171.52 256 87.04 256 0 256 C0 171.52 0 87.04 0 0 Z M59 50 C58.47519043 50.47566406 57.95038086 50.95132813 57.40966797 51.44140625 C37.31501928 69.89049961 25.1624008 95.03536763 23.640625 122.3984375 C22.60438917 152.53927226 33.41874835 178.65259522 53.56640625 200.82421875 C72.58901376 220.67750781 98.05738954 231.48616865 125.375 232.3347168 C152.26507143 232.73777474 176.69281415 223.71332682 197 206 C218.33290109 185.20293316 231.57827556 160.31028326 232.34301758 130.18481445 C232.6479942 102.79512025 223.60932813 77.45184252 204.578125 57.5859375 C203.72734375 56.73257813 202.8765625 55.87921875 202 55 C200.76056641 53.73349609 200.76056641 53.73349609 199.49609375 52.44140625 C180.37563232 33.73985947 155.04928049 23.72183414 128.375 23.5625 C102.31366902 23.86844946 78.37688111 32.38959473 59 50 Z " fill="#FEFEFE" transform="translate(0,0)"/>
<path d="M0 0 C19.47 0 38.94 0 59 0 C59.495 4.95 59.495 4.95 60 10 C61.35762154 12.77564845 61.35762154 12.77564845 64 14 C66.75791938 14.30584957 69.20761068 14.18615929 72 14 C72.54338341 17.18267426 73.00742893 20.20429557 73.125 23.4375 C74.18968816 27.7723018 75.92195088 29.35744652 79.2109375 32.2265625 C81.28238072 34.27991451 82.53963819 36.48661613 84 39 C83.28003342 39.01030746 82.56006683 39.02061493 81.81828308 39.03123474 C75.03499673 39.12919135 68.25179289 39.23170327 61.46865368 39.33933926 C57.9813316 39.39451576 54.49400105 39.44792726 51.0065918 39.49731445 C46.99779153 39.55416255 42.98914643 39.61867048 38.98046875 39.68359375 C37.10067574 39.70866249 37.10067574 39.70866249 35.1829071 39.73423767 C33.44144157 39.7641555 33.44144157 39.7641555 31.66479492 39.79467773 C30.64109299 39.81022202 29.61739105 39.8257663 28.56266785 39.84178162 C25.87992024 39.89715622 25.87992024 39.89715622 23 41 C22.7525 42.216875 22.505 43.43375 22.25 44.6875 C22.11078125 45.37199219 21.9715625 46.05648437 21.828125 46.76171875 C22.08918109 50.16138102 23.65350224 51.60266826 26 54 C28.72512378 54.755813 28.72512378 54.755813 31.77832031 54.65942383 C33.51967255 54.68888847 33.51967255 54.68888847 35.29620361 54.71894836 C36.54423767 54.71501572 37.79227173 54.71108307 39.078125 54.70703125 C40.35983582 54.72215256 41.64154663 54.73727386 42.96209717 54.75285339 C46.36192634 54.79268574 49.7612199 54.80289247 53.16125488 54.80688477 C56.63371002 54.81621987 60.1058509 54.85363551 63.578125 54.88867188 C70.38537201 54.95322874 77.19246554 54.98648427 84 55 C83.06459517 56.27723458 82.12496378 57.55137436 81.18359375 58.82421875 C80.66079834 59.53408936 80.13800293 60.24395996 79.59936523 60.9753418 C78 63 78 63 76.46118164 64.46801758 C74.04050203 66.79489533 73.01649914 68.45927826 72.9140625 71.81640625 C73.16087703 74.57720312 73.50985736 77.27267163 74 80 C73.01 80.495 73.01 80.495 72 81 C71.34 80.67 70.68 80.34 70 80 C66.59584089 79.62998271 64.65993432 79.60760662 61.6875 81.375 C59.14599449 84.89143403 59.14599449 84.89143403 59 94 C39.53 94 20.06 94 0 94 C0 62.98 0 31.96 0 0 Z " fill="#000000" transform="translate(89,81)"/>
<path d="M0 0 C0.68359589 -0.00525696 1.36719177 -0.01051392 2.07150269 -0.01593018 C4.32077197 -0.02908352 6.5693276 -0.02040825 8.81860352 -0.01025391 C10.38892248 -0.01227623 11.95924052 -0.01518899 13.52955627 -0.01895142 C16.81715862 -0.02336863 20.10451603 -0.01696418 23.39208984 -0.00292969 C27.59643565 0.01414793 31.80020627 0.00432655 36.00453091 -0.01364708 C39.24656976 -0.02451339 42.4884734 -0.02102533 45.73051643 -0.0132637 C47.28019339 -0.01126882 48.82988281 -0.01369588 50.37954521 -0.02070236 C52.55023343 -0.02836249 54.72000468 -0.01664973 56.890625 0 C58.12352768 0.00238678 59.35643036 0.00477356 60.62669373 0.00723267 C65.68366435 0.57663193 68.92260915 2.18322615 72.32250977 5.95068359 C75.19615069 10.10149827 75.22510653 13.33310171 75.26000977 18.26318359 C75.28063477 18.98376953 75.30125977 19.70435547 75.32250977 20.44677734 C75.34595117 23.62894819 75.2208914 25.98388598 73.73657227 28.82958984 C71.22932693 31.09291765 69.31519348 31.36794009 66.01782227 31.59912109 C64.01000977 31.38818359 64.01000977 31.38818359 61.01000977 29.57568359 C59.01000977 26.38818359 59.01000977 26.38818359 59.01000977 16.38818359 C39.54000977 16.38818359 20.07000977 16.38818359 0.01000977 16.38818359 C0.01000977 47.40818359 0.01000977 78.42818359 0.01000977 110.38818359 C19.48000977 110.38818359 38.95000977 110.38818359 59.01000977 110.38818359 C59.01000977 107.08818359 59.01000977 103.78818359 59.01000977 100.38818359 C61.43612627 96.8203652 62.79266497 95.64179709 67.01000977 94.76318359 C71.08810551 95.61278687 72.42190661 97.15736815 75.01000977 100.38818359 C75.60375977 103.94677734 75.60375977 103.94677734 75.51000977 107.82568359 C75.49454102 109.741875 75.49454102 109.741875 75.47875977 111.69677734 C74.82336891 116.85798035 73.32905779 120.16806417 69.51000977 123.70068359 C65.36936288 126.49562024 62.14066543 126.52622745 57.24707031 126.56518555 C56.56376648 126.57175674 55.88046265 126.57832794 55.17645264 126.58509827 C52.91654343 126.60479854 50.65670057 126.61648642 48.39672852 126.62646484 C47.23712081 126.63257813 47.23712081 126.63257813 46.05408669 126.63881493 C41.96233005 126.6596616 37.87060682 126.67396943 33.77880859 126.68334961 C29.55867205 126.69441197 25.33906309 126.72881335 21.11911297 126.76852131 C17.86852557 126.79469991 14.61806368 126.80304251 11.36738014 126.80663109 C9.81208546 126.81149377 8.25679626 126.82309878 6.70160484 126.84166908 C4.52102521 126.86608889 2.34180809 126.8650913 0.16113281 126.8581543 C-1.07780228 126.86402054 -2.31673737 126.86988678 -3.59321594 126.87593079 C-7.75225919 126.27872841 -9.80606474 125.11328913 -12.98999023 122.38818359 C-16.67029386 117.21617678 -16.42239675 112.08660456 -16.39404297 105.97998047 C-16.40090622 104.94511002 -16.40776947 103.91023956 -16.4148407 102.8440094 C-16.43310583 99.43151029 -16.42927184 96.01947098 -16.42358398 92.60693359 C-16.42814553 90.23091482 -16.43345102 87.85489737 -16.43946838 85.47888184 C-16.44839866 80.50246821 -16.44597673 75.52621508 -16.43603516 70.54980469 C-16.42453896 64.17409503 -16.44476799 57.79893867 -16.47395229 51.4233017 C-16.49230037 46.51792892 -16.49202468 41.61268912 -16.48631477 36.70729065 C-16.48616143 34.35656457 -16.49221681 32.00582955 -16.50460625 29.65513611 C-16.51948951 26.36853318 -16.50885817 23.08295757 -16.49169922 19.79638672 C-16.50136719 18.82685562 -16.51103516 17.85732452 -16.52099609 16.8584137 C-16.459426 11.22432437 -15.91442773 7.75277068 -11.98999023 3.38818359 C-8.0592182 0.24316146 -4.96124165 0.00961068 0 0 Z " fill="#F9F9F9" transform="translate(88.989990234375,64.61181640625)"/>
<path d="M0 0 C2.85839844 2.04785156 2.85839844 2.04785156 5.609375 4.890625 C6.10286438 5.39164734 6.59635376 5.89266968 7.10479736 6.40887451 C8.67037755 8.00684986 10.20966991 9.62771181 11.75 11.25 C12.7992006 12.32576264 13.84996853 13.39999901 14.90234375 14.47265625 C26.42892565 26.29884407 26.42892565 26.29884407 26.5625 31.25 C26.0384155 40.7393827 16.59308756 47.68613136 10.25 53.9375 C8.95642578 55.23010742 8.95642578 55.23010742 7.63671875 56.54882812 C0.30839108 63.82554786 0.30839108 63.82554786 -3.8125 64.375 C-7 64 -7 64 -9.9375 61.9375 C-12 59 -12 59 -12.25 55.625 C-10.81123526 51.45258226 -9.02685473 49.56223858 -5.7890625 46.67578125 C-3.92054711 44.92557797 -2.5097018 43.06117043 -1 41 C-1.70299728 41.00079559 -2.40599457 41.00159119 -3.1302948 41.00241089 C-9.76606744 41.00462169 -16.40103966 40.97815129 -23.03657055 40.9197216 C-26.44782379 40.89068825 -29.858391 40.87262237 -33.26977539 40.87988281 C-37.19464271 40.88775011 -41.11831335 40.84744463 -45.04296875 40.8046875 C-46.26396774 40.81378143 -47.48496674 40.82287537 -48.7429657 40.83224487 C-56.96827096 40.69116101 -56.96827096 40.69116101 -59.90957642 38.72076416 C-62.22044706 36.11297277 -62.99279363 34.36031853 -63.0625 30.875 C-61.84199526 27.57245775 -60.72442401 26.20718808 -58 24 C-55.3550415 23.48101807 -55.3550415 23.48101807 -52.31347656 23.45410156 C-51.17259583 23.43438293 -50.03171509 23.41466431 -48.85626221 23.39434814 C-47.63010193 23.39311951 -46.40394165 23.39189087 -45.140625 23.390625 C-43.88111023 23.37408875 -42.62159546 23.35755249 -41.32391357 23.34051514 C-37.98317327 23.30017166 -34.64319576 23.27685176 -31.30230713 23.26177979 C-27.89018257 23.24219495 -24.47834085 23.20022668 -21.06640625 23.16015625 C-14.3776731 23.08614953 -7.68904687 23.03457908 -1 23 C-1.71027344 22.28714844 -2.42054688 21.57429688 -3.15234375 20.83984375 C-4.08150485 19.87314079 -5.00984729 18.90565051 -5.9375 17.9375 C-6.85402344 16.99777344 -7.77054688 16.05804688 -8.71484375 15.08984375 C-11.33299244 11.54974869 -11.92265541 9.37254739 -12 5 C-8.58773428 -0.01176528 -5.87945593 -0.69750943 0 0 Z " fill="#FBFBFB" transform="translate(173,96)"/>
</svg>
